<svg width="13" height="15" viewBox="0 0 13 15" fill="none" xmlns="http://www.w3.org/2000/svg">
<path id="BOT&#195;&#131;O MENU BARRAS" fill-rule="evenodd" clip-rule="evenodd" d="M1.54375 0H11.4562H11.6187V0.00821116C12.395 0.0871107 13 0.7249 13 1.5C13 2.2751 12.395 2.91289 11.6187 2.99179V3H11.4562H1.54375C0.69116 3 0 2.32843 0 1.5C0 0.671573 0.69116 0 1.54375 0ZM1.54375 6H11.4562H11.6187V6.00821C12.395 6.08711 13 6.7249 13 7.5C13 8.2751 12.395 8.91289 11.6187 8.99179V9H11.4562H1.54375C0.69116 9 0 8.32843 0 7.5C0 6.67157 0.69116 6 1.54375 6ZM11.4562 12H1.54375C0.69116 12 0 12.6716 0 13.5C0 14.3284 0.69116 15 1.54375 15H11.4562H11.6187V14.9918C12.395 14.9129 13 14.2751 13 13.5C13 12.7249 12.395 12.0871 11.6187 12.0082V12H11.4562Z" fill="white"/>
</svg>
